#define home_width 20
#define home_height 23
static char home_bits[] = {
   0x00, 0x00, 0x00, 0x00, 0x00, 0x00, 0x00, 0x00, 0x00, 0xff, 0xff, 0x0f,
   0x01, 0x00, 0x08, 0xfd, 0x07, 0x08, 0xfd, 0x03, 0x08, 0xfd, 0x01, 0x08,
   0xfd, 0x01, 0x08, 0xfd, 0x03, 0x08, 0xfd, 0x07, 0x08, 0xfd, 0x0f, 0x08,
   0xcd, 0x0f, 0x08, 0x85, 0x07, 0x08, 0x01, 0x03, 0x08, 0x01, 0x00, 0x08,
   0x01, 0x00, 0x08, 0x01, 0x00, 0x08, 0x01, 0x00, 0x08, 0x01, 0x00, 0x08,
   0x01, 0x00, 0x08, 0x01, 0x00, 0x08, 0xff, 0xff, 0x0f};
