#define mail_width 20
#define mail_height 23
static char mail_bits[] = {
   0x00, 0x00, 0x00, 0x00, 0x00, 0x00, 0x00, 0x00, 0x00, 0x00, 0x00, 0x00,
   0x00, 0x00, 0x00, 0x00, 0x00, 0x00, 0x00, 0x00, 0x00, 0x00, 0x00, 0x00,
   0x00, 0x00, 0x00, 0x00, 0x00, 0x00, 0xfe, 0xff, 0x07, 0x06, 0x00, 0x06,
   0x0a, 0x00, 0x05, 0x12, 0x80, 0x04, 0x62, 0x60, 0x04, 0x82, 0x10, 0x04,
   0x02, 0x09, 0x04, 0x02, 0x06, 0x04, 0x02, 0x00, 0x04, 0x02, 0x00, 0x04,
   0x02, 0x00, 0x04, 0x02, 0x00, 0x04, 0xfe, 0xff, 0x07};
