#define network_width 20
#define network_height 23
static char network_bits[] = {
   0x00, 0x00, 0x00, 0x00, 0x00, 0x00, 0xf8, 0x03, 0x00, 0x08, 0x02, 0x00,
   0x08, 0x02, 0x00, 0x08, 0x02, 0x00, 0xf8, 0x03, 0x00, 0xfc, 0x07, 0x00,
   0x04, 0x04, 0x00, 0xfc, 0x07, 0x00, 0x40, 0x00, 0x00, 0x40, 0x00, 0x00,
   0xff, 0xff, 0x0f, 0x00, 0x20, 0x00, 0x00, 0x20, 0x00, 0x00, 0xfc, 0x01,
   0x00, 0x04, 0x01, 0x00, 0x04, 0x01, 0x00, 0x04, 0x01, 0x00, 0xfc, 0x01,
   0x00, 0xfe, 0x03, 0x00, 0x02, 0x02, 0x00, 0xfe, 0x03};
